<svg xmlns="http://www.w3.org/2000/svg" version="1.1" xmlns:xlink="http://www.w3.org/1999/xlink" xmlns:svgjs="http://svgjs.dev/svgjs" width="1440" height="560" preserveAspectRatio="none" viewBox="0 0 1440 560"><g mask="url(&quot;#SvgjsMask1003&quot;)" fill="none"><rect width="1440" height="560" x="0" y="0" fill="rgba(33, 33, 33, 1)"></rect><path d="M 0,83 C 57.6,113.8 172.8,243.8 288,237 C 403.2,230.2 460.8,47.2 576,49 C 691.2,50.8 748.8,233 864,246 C 979.2,259 1036.8,127.8 1152,114 C 1267.2,100.2 1382.4,164.4 1440,177L1440 560L0 560z" fill="rgba(65, 65, 65, 1)"></path><path d="M 0,297 C 72,322 216,424.8 360,422 C 504,419.2 576,267.8 720,283 C 864,298.2 936,490 1080,498 C 1224,506 1368,358 1440,323L1440 560L0 560z" fill="rgba(97, 97, 97, 1)"></path></g><defs><mask id="SvgjsMask1003"><rect width="1440" height="560" fill="#ffffff"></rect></mask></defs></svg>